<svg id="Layer_1" data-name="Layer 1" xmlns="http://www.w3.org/2000/svg" viewBox="0 0 87.26 20.35"><defs><style>.cls-1{fill:#fff;}</style></defs><circle cx="10.18" cy="10.18" r="10.18"/><path class="cls-1" d="M16.94,11.45a1.72,1.72,0,0,0-2.34-.63L10,13.46h0l-.36.2c-.28.16-.56.31-.83.48l-.3.17-.11.06h0l-.05,0-.06,0h0a1,1,0,0,1-.34.06.85.85,0,0,1-.39-.08,1,1,0,0,1-.23-.12A1.12,1.12,0,0,1,7,13.9a1,1,0,0,1-.15-.48,1,1,0,0,1,.09-.49l0,0a.25.25,0,0,1,0-.07l0-.05a.56.56,0,0,0,.05-.08l.2-.28.38-.57.77-1.14c.38-.55.76-1.13,1.13-1.68l.4-.6a.26.26,0,0,0-.07-.36.42.42,0,0,0-.15,0h0a.25.25,0,0,0-.2.09l-.66.83-.21.25L8,10l-.19.24L7,11.36l-.41.55-.21.28-.09.13,0,0a1.19,1.19,0,0,0-.09.15l0,.05h0a2,2,0,0,0,.05,1.8,2.51,2.51,0,0,0,.27.37A2,2,0,0,0,6.8,15a2.3,2.3,0,0,0,.4.23l.17.06,0,0h.07l.18,0,.27,0a1.82,1.82,0,0,0,.65-.12l.15-.06,0,0h0L9,15.1l0,0L9.17,15a1.71,1.71,0,0,0,2.56,1.44l4.59-2.65a1.71,1.71,0,0,0,.62-2.33Zm-.26-.07,0,0Zm-5.34,4.38a.92.92,0,0,1-1.27-.34.94.94,0,0,1,.17-1.16h0l.16-.12L15,11.49a.94.94,0,0,1,.94,1.62Zm.09.16-.11.05Zm4.92-4.29.08.11Zm-.09-.11.07.08-.07-.08Zm.11-.45h0Zm-.14.43-.1-.09.1.09ZM16.18,11l.05,0-.05,0Zm-.16.38.1.07-.1-.07Zm-.54-.15h0Zm.14,0,.11,0-.11,0Zm.13,0,.12,0-.12,0Zm.15.06.09,0-.09,0Zm-.88,0-.12.06L10.32,14h0l4.58-2.64.12-.06Zm-.16-.38.05,0-.05,0Zm.18-.07h0Zm.21,0h0Zm.2.4h0Zm-.14,0-.12,0,.11,0Zm-.16,0-.09,0,.09,0ZM9.76,15a1.1,1.1,0,0,1,.24-.7A1.1,1.1,0,0,0,9.76,15Zm1,1.09a.5.5,0,0,1-.13,0,.28.28,0,0,0,.13,0Zm.13,0h0Zm.17,0h0Zm.26-.06-.09,0,.09,0Zm-.13,0-.13,0,.13,0Zm5.4-4.8,0,0,0,0Zm-1.06-.46h0Zm.57.13,0,0,.05,0Zm-.21-.08h0Zm-.17,0h0ZM8.35,14.6l-.17,0Zm-.22.05h0Zm-.19,0-.16,0ZM6.66,13.29a1.67,1.67,0,0,1,.11-.44A1.67,1.67,0,0,0,6.66,13.29Zm3.15-5v0ZM9.75,8.2h0Zm0,0h0Zm-.11,0h0c-.15.17-.29.35-.44.53.15-.18.29-.36.44-.53Zm0,0h0ZM6.13,13.46h0a2,2,0,0,0,.07.42A2,2,0,0,1,6.13,13.46ZM7.28,15.1a1.76,1.76,0,0,1-.2-.09,1.76,1.76,0,0,0,.2.09l.2.07Zm.6.13h0Zm0,0h0Zm.44-.05.18,0-.18,0Zm-.2,0,.15,0a.8.8,0,0,1-.15,0ZM8.9,15l.29-.19.19-.13-.19.13L8.9,15Zm.93,1.11a1,1,0,0,1-.19-.22,1.53,1.53,0,0,0,.56.48,1.85,1.85,0,0,1-.37-.25ZM17,12.55a1.51,1.51,0,0,0,0-.3,1.51,1.51,0,0,1,0,.3Z" transform="translate(0 0)"/><path class="cls-1" d="M14.16,6a2.16,2.16,0,0,0-.27-.38,2,2,0,0,0-.34-.31,2.3,2.3,0,0,0-.4-.23L13,5h-.12l-.17,0-.28,0a1.82,1.82,0,0,0-.65.12l-.15.06,0,0h0l-.18.11,0,0-.14.09A1.71,1.71,0,0,0,9.47,3.69h0a1.69,1.69,0,0,0-.85.23L4,6.57A1.71,1.71,0,0,0,4.45,9.7a1.61,1.61,0,0,0,.44.06,1.73,1.73,0,0,0,.86-.23l4.58-2.65.37-.2.82-.47.3-.18.11,0h0L12,6l.06,0h0a1,1,0,0,1,.34-.06,1,1,0,0,1,.38.08,1,1,0,0,1,.23.12,1.27,1.27,0,0,1,.35.38,1.34,1.34,0,0,1,.15.48,1.08,1.08,0,0,1-.09.5l0,0,0,.07,0,0a.56.56,0,0,0-.05.08l-.2.28-.38.57-.77,1.14L10.8,11.34l-.39.6a.26.26,0,0,0,.41.31l.67-.83.2-.25.65-.84.2-.24L13.37,9l.4-.55L14,8.16,14.07,8l0,0a1.19,1.19,0,0,0,.09-.15l0,0h0a2,2,0,0,0,.19-.9A2,2,0,0,0,14.16,6Zm-1.5-.87h0Zm-.22,0h0Zm-.44,0-.18,0,.18,0Zm.2,0-.15,0,.15,0ZM4.42,7.24,9,4.59a.94.94,0,0,1,1.1,1.5h0l-.16.12L5.36,8.86a.94.94,0,0,1-1.27-.37.92.92,0,0,1,.33-1.25Zm6-3.06Zm-5.66,5-.13,0Zm.14,0h0ZM5.45,9l-.12.05L5.45,9Zm-.16.07-.09,0,.09,0Zm-.13,0L5,9.16l.12,0ZM5,9.16H5ZM11,5.72h0l.19-.13L11,5.72Zm-.28-1.24,0,0,0,0Zm-.12-.14,0,0,0,0ZM9.5,3.88h0Zm.75.2-.05,0,0,0ZM10.08,4,10,4l.05,0Zm-.21-.07h0Zm-.18,0h0ZM8.88,4l0,0,0,0Zm.17-.07h0Zm.21,0h0ZM4.89,9.58h-.2l-.19,0a1.51,1.51,0,0,1-.76-.47,1.51,1.51,0,0,0,.76.47l.19,0h.2a1.43,1.43,0,0,0,.58-.12A1.43,1.43,0,0,1,4.89,9.58Zm5.35-2.85L5.66,9.38Zm1.76-1,.17,0-.17,0Zm.36-.06h0Zm.05,0h0Zm1,2.08,0-.07a.43.43,0,0,0,0,.07l-.12.17ZM10.6,12.15h0Zm0,0h0Zm.07,0h0Zm2.58-3.27L12.39,10l.83-1.09.41-.55Z" transform="translate(0 0)"/><path d="M34.19,3.25l.72,1.14L29.12,13.6l5.47,0V16.7h-10L24,15.45l5.81-9H24.41V3.25Z" transform="translate(0 0)"/><path d="M39.68,16.7h-3.4V3.25h3.4Z" transform="translate(0 0)"/><path d="M48.88,3.25h4.24l-5.33,6.5,5.31,7H48.78l-3.44-4.81-.11.16V16.7H41.81V3.25h3.42v5Z" transform="translate(0 0)"/><path d="M52.85,7.68c0-3.1,2.78-4.62,5.57-4.62S64,4.6,64,7.68v4.59c0,3.08-2.77,4.62-5.56,4.62s-5.59-1.54-5.59-4.62Zm3.4,4.59c0,1,1.1,1.47,2.19,1.47s2.16-.5,2.16-1.47V7.68c0-1-1.12-1.52-2.22-1.52s-2.13.53-2.13,1.52Z" transform="translate(0 0)"/><path d="M70.84,3.25c2.7,0,5.23,1.37,5.23,4.5v4.52c0,3.1-2.53,4.45-5.23,4.43h-5V3.25ZM71,13.51c1.16,0,1.69-.59,1.69-1.46V7.85c0-.88-.55-1.43-1.69-1.43H69.23v7.09Z" transform="translate(0 0)"/><path d="M81.33,8.53h5.45v3H81.33v2h5.93V16.7H77.89V3.25h9.37V6.44H81.33Z" transform="translate(0 0)"/></svg>