<svg id="_01" data-name="01" xmlns="http://www.w3.org/2000/svg" viewBox="0 0 32 32"><defs><style>.cls-1{fill:#fff;}</style></defs><circle cx="16" cy="16" r="16"/><path class="cls-1" d="M26.64,18A2.7,2.7,0,0,0,23,17l-7.19,4.16h0l-.57.32-1.3.74-.46.27-.17.09h0l-.07,0-.1,0h0a1.61,1.61,0,0,1-1.14,0,1.75,1.75,0,0,1-.35-.2,2,2,0,0,1-.55-.6,1.65,1.65,0,0,1-.23-.75,1.62,1.62,0,0,1,.14-.78l0-.07.06-.11,0-.07.08-.13.31-.45.6-.89,1.21-1.78c.6-.88,1.2-1.78,1.78-2.66l.62-.93a.41.41,0,0,0-.11-.57.46.46,0,0,0-.23-.06h0a.41.41,0,0,0-.31.14c-.36.43-.71.87-1.05,1.3l-.32.39-1,1.32-.3.39L11,17.86l-.65.87-.32.43-.15.21,0,.05c-.05.08-.09.16-.13.24l0,.07h0a2.91,2.91,0,0,0-.3,1.42,3,3,0,0,0,.38,1.4,4,4,0,0,0,.41.6,4.28,4.28,0,0,0,.55.49,3.19,3.19,0,0,0,.63.35,1.69,1.69,0,0,0,.27.1l.07,0h.1a1.5,1.5,0,0,0,.29.06,3,3,0,0,0,.42,0,3,3,0,0,0,1-.18l.23-.1.09,0h0l.29-.16.06,0,.22-.14a2.69,2.69,0,0,0,4,2.26l7.2-4.16a2.68,2.68,0,0,0,1-3.67Zm-.41-.1-.06-.07Zm-8.39,6.88a1.47,1.47,0,0,1-1.74-2.35l0,0,.25-.19,7.19-4.15A1.47,1.47,0,0,1,25,20.62ZM18,25l-.19.1Zm7.73-6.73a1.4,1.4,0,0,1,.12.18A1.4,1.4,0,0,0,25.71,18.29Zm-.14-.17.1.12-.11-.12Zm.17-.71h0Zm-.22.67-.15-.14.15.14Zm-.07-.85.07,0-.07,0Zm-.26.6.16.1-.16-.1Zm-.85-.24h0Zm.22,0,.17,0-.17,0Zm.2,0,.19.06-.19-.06Zm.24.08.14.07L25,17.73Zm-1.38,0-.19.09L16.23,22h0l7.2-4.16.19-.09Zm-.25-.6.08,0-.08,0Zm.27-.1.09,0-.08,0ZM24,17h0Zm.32.63h0Zm-.22,0a1.13,1.13,0,0,0-.18,0l.17,0Zm-.24.05-.15.05.14-.05Zm-8.48,5.86a1.82,1.82,0,0,1,.37-1.1A1.82,1.82,0,0,0,15.35,23.52Zm1.5,1.72-.2,0,.2,0Zm.22,0h-.15l.15,0Zm.26,0h-.2a.66.66,0,0,0,.2,0Zm.41-.1-.15,0,.15,0Zm-.21.06-.19,0,.19,0ZM26,17.66,26,17.6l.06.07Zm-1.67-.72h0Zm.9.2-.07,0,.07,0ZM24.93,17h0ZM24.65,17h-.08l.08,0ZM13.13,23l-.27.07Zm-.35.08-.22,0Zm-.29,0-.26,0Zm-2-2.17a1.94,1.94,0,0,1,.17-.68A1.94,1.94,0,0,0,10.48,20.89ZM15.42,13v0Zm-.09-.15h0Zm.05,0,0,0Zm-.18,0h0l-.68.84.68-.84Zm.06,0h0ZM9.64,21.16h0a3,3,0,0,0,.1.66A3,3,0,0,1,9.64,21.16Zm1.8,2.59-.3-.15.3.15.32.11Zm1,.2-.31,0Zm0,0h0Zm.69-.08.28-.08-.28.08Zm-.32.06.24,0-.24,0ZM14,23.5l.46-.29.3-.2-.3.2L14,23.5Zm1.47,1.76a2.67,2.67,0,0,1-.31-.36,2.43,2.43,0,0,0,.89.76,2.6,2.6,0,0,1-.58-.4Zm11.22-5.53a1.86,1.86,0,0,0,0-.47,1.83,1.83,0,0,1,0,.47Z"/><path class="cls-1" d="M22.26,9.43a4.89,4.89,0,0,0-.41-.6,3.57,3.57,0,0,0-.55-.48A2.63,2.63,0,0,0,20.67,8l-.27-.1-.07,0h0l-.07,0-.28,0-.43,0a3,3,0,0,0-1,.18l-.23.1-.09,0h0l-.29.16-.06,0-.22.13A2.68,2.68,0,0,0,14.89,5.8h0a2.74,2.74,0,0,0-1.34.36L6.34,10.33A2.68,2.68,0,0,0,7,15.25a2.32,2.32,0,0,0,.7.1A2.74,2.74,0,0,0,9,15l7.2-4.17.58-.32,1.3-.74.46-.27.17-.09h0l.08,0,.09,0h0a1.61,1.61,0,0,1,1.14,0,1.33,1.33,0,0,1,.35.2,1.86,1.86,0,0,1,.55.6,1.66,1.66,0,0,1,.24.75,1.92,1.92,0,0,1-.14.78.16.16,0,0,0,0,.07l-.06.11,0,.07-.08.13-.31.45-.6.89-1.21,1.78c-.6.88-1.2,1.78-1.78,2.66l-.62.93a.42.42,0,0,0,.12.57.4.4,0,0,0,.53-.08c.37-.43.71-.87,1-1.3l.32-.4c.35-.43.7-.88,1-1.31l.3-.39L21,14.14l.64-.87.32-.44.14-.21,0,0,.13-.23,0-.07h0a3,3,0,0,0,.3-1.42A3.25,3.25,0,0,0,22.26,9.43ZM19.91,8.07l-.31,0Zm-.36,0a1.51,1.51,0,0,0-.3,0h.3Zm-.68.08-.28.08.28-.08Zm.32-.06-.24,0,.24,0ZM7,11.38l7.2-4.16a1.48,1.48,0,0,1,2,.54,1.46,1.46,0,0,1-.28,1.81l0,0-.26.19L8.42,13.93A1.47,1.47,0,0,1,7,11.38Zm9.37-4.81h0ZM7.44,14.39l-.21,0Zm.21,0h0Zm.92-.23-.19.09.19-.09Zm-.25.11-.14.05.14-.05Zm-.2.07-.2,0,.2,0Zm-.2,0h0ZM17.25,9h0l.3-.2-.3.2Zm-.44-1.94a.18.18,0,0,0,0-.07.18.18,0,0,1,0,.07Zm-.19-.23-.06-.06.06.06Zm-1.68-.73h0Zm1.17.33-.07,0,.07,0Zm-.26-.13-.07,0,.07,0Zm-.33-.12h0Zm-.28,0h0ZM14,6.28l.08,0-.09,0Zm.28-.09.08,0-.09,0Zm.32-.07h0ZM7.69,15.06l-.31,0A1.55,1.55,0,0,1,7.07,15a2.51,2.51,0,0,1-.65-.28,2.63,2.63,0,0,1-.54-.46,2.63,2.63,0,0,0,.54.46,2.51,2.51,0,0,0,.65.28,1.55,1.55,0,0,0,.31.06l.31,0a2.39,2.39,0,0,0,.92-.18A2.39,2.39,0,0,1,7.69,15.06Zm8.41-4.48L8.89,14.74ZM18.87,9,19.14,9,18.87,9Zm.57-.1-.22,0,.22,0Zm.07,0,.26,0-.26,0Zm1.6,3.28.07-.11-.07.11-.18.26Zm-4.44,6.89h0Zm-.05,0,0,0Zm.12,0h0ZM20.79,14l-1.31,1.72L20.79,14l.64-.86Z"/></svg>